<svg width="36" height="36" viewBox="0 0 36 36" fill="none" xmlns="http://www.w3.org/2000/svg">
<path d="M18.069 2.81301C17.6802 2.81019 17.3631 3.12309 17.3602 3.51121C17.3574 3.89934 17.6696 4.21645 18.0585 4.21926C18.4466 4.22207 18.7637 3.90988 18.7665 3.52176C18.7693 3.13363 18.4571 2.81652 18.069 2.81301Z" fill="white"/>
<path d="M18.0369 7.03186C15.322 7.0126 13.0987 9.20277 13.0781 11.9168C13.0577 14.6306 15.249 16.855 17.963 16.8755C17.9756 16.8756 17.9881 16.8756 18.0007 16.8756C20.6974 16.8756 22.9014 14.692 22.9218 11.9906C22.9422 9.27688 20.7509 7.05233 18.0369 7.03186ZM18.0006 15.4695C17.9917 15.4695 17.9825 15.4694 17.9736 15.4693C16.035 15.4547 14.4697 13.8658 14.4843 11.9273C14.4989 9.99758 16.073 8.43791 17.9993 8.43791C18.0082 8.43791 18.0175 8.43798 18.0263 8.43805C19.9649 8.45267 21.5302 10.0416 21.5156 11.98C21.501 13.9098 19.9269 15.4695 18.0006 15.4695Z" fill="white"/>
<path d="M21.0678 3.34579C20.702 3.21599 20.2999 3.4076 20.1701 3.77364C20.0404 4.13969 20.232 4.54153 20.5979 4.67133C23.695 5.76898 25.759 8.71866 25.7343 12.0112C25.7314 12.3995 26.0438 12.7166 26.4321 12.7196C26.4339 12.7196 26.4357 12.7196 26.4376 12.7196C26.8233 12.7196 27.1376 12.4082 27.1405 12.0217C27.1698 8.13014 24.7293 4.64355 21.0678 3.34579Z" fill="white"/>
<path d="M22.3142 26.4686C26.9909 20.4488 29.9136 17.3097 29.953 12.043C30.0026 5.41653 24.6249 0 17.9989 0C11.4503 0 6.09681 5.30354 6.04703 11.8637C6.00681 17.2732 8.98378 20.408 13.6928 26.4676C9.00818 27.1677 6.04703 28.9267 6.04703 31.0782C6.04703 32.5194 7.37918 33.8126 9.79814 34.7197C11.9998 35.5453 14.9127 36 18 36C21.0874 36 24.0002 35.5453 26.2019 34.7197C28.6209 33.8126 29.953 32.5193 29.953 31.0781C29.953 28.9278 26.9946 27.1692 22.3142 26.4686ZM7.45322 11.8743C7.49709 6.08556 12.2203 1.40625 17.9991 1.40625C23.8462 1.40625 28.5905 6.18667 28.5469 12.0325C28.5095 17.0342 25.4099 20.1164 20.4615 26.5671C19.5789 27.7172 18.7683 28.8045 18.0011 29.8681C17.2361 28.8039 16.4417 27.736 15.5458 26.5667C10.3929 19.846 7.41511 16.9966 7.45322 11.8743ZM18 34.5938C11.9636 34.5938 7.45322 32.7378 7.45322 31.0782C7.45322 29.8474 10.1496 28.2927 14.6832 27.7543C15.6853 29.0692 16.564 30.2638 17.4257 31.4839C17.5574 31.6702 17.7712 31.7812 17.9994 31.7813C17.9996 31.7813 17.9998 31.7813 18 31.7813C18.228 31.7813 18.4418 31.6708 18.5737 31.4848C19.4272 30.2806 20.3299 29.0566 21.3235 27.7551C25.8529 28.294 28.5469 29.8483 28.5469 31.0783C28.5468 32.7378 24.0365 34.5938 18 34.5938Z" fill="white"/>
</svg>
