<svg width="36" height="36" viewBox="0 0 36 36" fill="none" xmlns="http://www.w3.org/2000/svg">
<g clip-path="url(#clip0_14_69)">
<path d="M6.30002 28.0688C5.62502 28.0688 5.00627 27.7313 4.66877 27.2251L0.393771 21.3188C-0.0562291 20.7001 -0.112479 19.8563 0.225021 19.1813C0.562521 18.5063 1.29377 18.0563 2.02502 18.0563H2.86877C2.98127 16.2563 3.31877 14.5126 3.88127 12.9376H3.93752C5.34377 9.16882 8.21252 6.18757 11.9813 4.55632C16.2 2.75632 21.2063 2.70007 25.4813 4.44382C26.0438 4.66882 26.4938 5.17507 26.6625 5.79382C26.8313 6.41257 26.7188 7.03132 26.325 7.53757L24.5813 9.90007C24.075 10.6313 23.1188 10.9126 22.275 10.6313C19.2938 9.56257 15.8063 9.95632 13.3313 11.7001C11.8688 12.7688 10.0688 14.6813 9.78752 18.1126H10.575C11.3625 18.1126 12.0375 18.5626 12.375 19.2376C12.7125 19.9126 12.6563 20.7563 12.2063 21.3751L7.93127 27.2813C7.59377 27.7313 6.97502 28.0688 6.30002 28.0688ZM2.02502 20.1376L6.30002 26.0438L10.575 20.1376H8.71877C8.15627 20.1376 7.70627 19.6876 7.70627 19.1251C7.70627 15.2438 9.28127 12.0376 12.15 10.0126C15.1875 7.87507 19.35 7.36882 22.95 8.71882L24.6375 6.35632C20.8688 4.78132 16.425 4.83757 12.7688 6.46882C10.4625 7.48132 7.42502 9.50632 5.85002 13.6688V13.7251C5.23127 15.3563 4.89377 17.2126 4.89377 19.1813C4.89377 19.7438 4.44377 20.1938 3.88127 20.1938C3.88127 20.1376 2.02502 20.1376 2.02502 20.1376ZM17.1563 32.8501C14.9063 32.8501 12.6 32.4001 10.5188 31.5563C9.95627 31.3313 9.50627 30.8251 9.33752 30.2063C9.16877 29.5876 9.28127 28.9688 9.67502 28.4626L11.4188 26.1001C11.925 25.3688 12.8813 25.0876 13.725 25.3688C16.7063 26.4376 20.1938 26.0438 22.6688 24.3001C24.1875 23.2313 25.9313 21.3188 26.2125 17.8876H25.425C24.6375 17.8876 23.9625 17.4376 23.625 16.7626C23.2875 16.0876 23.3438 15.2438 23.7938 14.6251L28.0688 8.71882C28.4625 8.21257 29.0813 7.87507 29.7 7.87507C30.375 7.87507 30.9938 8.21257 31.3313 8.71882L35.6063 14.6251C36.0563 15.2438 36.1125 16.0876 35.775 16.7626C35.4375 17.4376 34.7063 17.8876 33.975 17.8876H33.1313C33.0188 19.6876 32.6813 21.4313 32.1188 23.0063V23.0626C30.7125 26.8313 27.8438 29.8126 24.075 31.4438C21.8813 32.4001 19.5188 32.8501 17.1563 32.8501ZM12.9938 27.2813L11.3063 29.6438C15.075 31.2188 19.5188 31.1626 23.175 29.5313C25.4813 28.5188 28.5188 26.4938 30.0938 22.3313V22.2751C30.7125 20.6438 31.05 18.7876 31.05 16.8188C31.05 16.2563 31.5 15.8063 32.0625 15.8063H33.9188L29.6438 9.90007L25.3688 15.8063H27.225C27.7875 15.8063 28.2375 16.2563 28.2375 16.8188C28.2375 20.7001 26.6625 23.9063 23.7938 25.9313C20.7563 28.1251 16.65 28.6313 12.9938 27.2813Z" fill="white"/>
</g>
<defs>
<clipPath id="clip0_14_69">
<rect width="36" height="36" fill="white"/>
</clipPath>
</defs>
</svg>
