<svg width="36" height="36" viewBox="0 0 36 36" fill="none" xmlns="http://www.w3.org/2000/svg">
<path fill-rule="evenodd" clip-rule="evenodd" d="M6.6958 3.37939C5.45616 3.33364 4.64028 3.63977 4.14003 4.14002C3.63977 4.64028 3.33364 5.45616 3.37939 6.69583C3.42521 7.93749 3.82515 9.48757 4.59713 11.2586C5.25716 12.7728 6.17138 14.4079 7.31308 16.0949C8.53905 14.5337 9.92415 12.9698 11.447 11.447C12.9698 9.92413 14.5337 8.53903 16.0948 7.31306C14.408 6.17136 12.7728 5.25715 11.2586 4.59713C9.4876 3.82514 7.93752 3.42521 6.6958 3.37939ZM18 5.89438C15.9856 4.47586 14.0062 3.3403 12.1577 2.53456C10.2347 1.69634 8.39792 1.19067 6.77877 1.13092C5.1576 1.07109 3.63867 1.4594 2.54904 2.54903C1.45941 3.63867 1.07109 5.15759 1.13092 6.7788C1.19067 8.3979 1.69634 10.2347 2.53456 12.1577C3.3403 14.0061 4.47587 15.9856 5.8944 17.9999C4.47587 20.0143 3.3403 21.9937 2.53456 23.8422C1.69634 25.7652 1.19067 27.6019 1.13092 29.2211C1.07109 30.8423 1.4594 32.3612 2.54904 33.4509C3.63867 34.5405 5.1576 34.9288 6.77877 34.869C8.39792 34.8092 10.2347 34.3036 12.1577 33.4653C14.0062 32.6596 15.9856 31.524 18 30.1054C20.0143 31.524 21.9937 32.6596 23.8422 33.4653C25.7652 34.3036 27.602 34.8092 29.2211 34.869C30.8423 34.9288 32.3612 34.5405 33.4508 33.4509C34.5405 32.3612 34.9288 30.8423 34.8689 29.2211C34.8092 27.6019 34.3035 25.7652 33.4653 23.8422C32.6596 21.9937 31.524 20.0143 30.1055 17.9999C31.524 15.9856 32.6596 14.0061 33.4653 12.1577C34.3035 10.2347 34.8092 8.3979 34.8689 6.7788C34.9288 5.15759 34.5405 3.63867 33.4508 2.54904C32.3612 1.4594 30.8423 1.07109 29.2211 1.13092C27.602 1.19067 25.7652 1.69634 23.8422 2.53456C21.9937 3.3403 20.0143 4.47586 18 5.89438ZM18 8.68382C16.3494 9.94174 14.6749 11.401 13.0379 13.038C11.4011 14.6748 9.94176 16.3494 8.68384 17.9999C9.94176 19.6505 11.4011 21.325 13.0379 22.9619C14.6749 24.5989 16.3494 26.0581 18 27.316C19.6505 26.0581 21.325 24.5989 22.9619 22.9619C24.5988 21.325 26.0581 19.6505 27.316 17.9999C26.0581 16.3494 24.5988 14.6748 22.9619 13.038C21.325 11.401 19.6505 9.94174 18 8.68382ZM28.6868 16.0949C27.4609 14.5337 26.0758 12.9698 24.5529 11.447C23.0301 9.92413 21.4661 8.53903 19.905 7.31306C21.5919 6.17136 23.2271 5.25715 24.7412 4.59713C26.5123 3.82514 28.0624 3.42521 29.3041 3.37939C30.5437 3.33364 31.3596 3.63977 31.8599 4.14002C32.3601 4.64028 32.6663 5.45616 32.6205 6.69583C32.5747 7.93749 32.1747 9.48757 31.4028 11.2586C30.7427 12.7728 29.8286 14.4079 28.6868 16.0949ZM28.6868 19.905C27.4609 21.4661 26.0758 23.0301 24.5529 24.5529C23.0301 26.0758 21.4661 27.4609 19.905 28.6868C21.5919 29.8285 23.2271 30.7427 24.7412 31.4027C26.5123 32.1747 28.0624 32.5747 29.3041 32.6205C30.5437 32.6662 31.3596 32.3601 31.8599 31.8598C32.3601 31.3596 32.6663 30.5437 32.6205 29.3041C32.5747 28.0624 32.1747 26.5123 31.4028 24.7413C30.7427 23.2271 29.8286 21.592 28.6868 19.905ZM16.0948 28.6868C14.5337 27.4609 12.9698 26.0758 11.447 24.5529C9.92415 23.0301 8.53905 21.4661 7.31308 19.905C6.17138 21.5919 5.25715 23.2271 4.59713 24.7413C3.82515 26.5123 3.42521 28.0624 3.37939 29.3041C3.33364 30.5437 3.63977 31.3596 4.14002 31.8598C4.64028 32.3601 5.45616 32.6662 6.6958 32.6205C7.93752 32.5747 9.4876 32.1747 11.2586 31.4027C12.7728 30.7427 14.408 29.8285 16.0948 28.6868ZM18 15.1874C16.4467 15.1874 15.1875 16.4466 15.1875 17.9999C15.1875 19.5532 16.4467 20.8124 18 20.8124C19.5533 20.8124 20.8125 19.5532 20.8125 17.9999C20.8125 16.4466 19.5533 15.1874 18 15.1874ZM12.9375 17.9999C12.9375 15.2039 15.204 12.9374 18 12.9374C20.7959 12.9374 23.0625 15.2039 23.0625 17.9999C23.0625 20.7959 20.7959 23.0624 18 23.0624C15.204 23.0624 12.9375 20.7959 12.9375 17.9999Z" fill="white"/>
</svg>
