<svg width="56" height="56" viewBox="0 0 56 56" fill="none" xmlns="http://www.w3.org/2000/svg">
<g clip-path="url(#clip0_8_210)">
<path d="M27.8907 16.0154C26.7068 16.0154 25.7438 16.9788 25.7438 18.1623C25.7438 19.3462 26.7068 20.3092 27.8907 20.3092C29.0746 20.3092 30.0376 19.3462 30.0376 18.1623C30.0376 16.9784 29.0746 16.0154 27.8907 16.0154Z" fill="url(#paint0_linear_8_210)"/>
<path d="M27.8907 0.109375C17.9362 0.109375 9.83777 8.20784 9.83777 18.1623C9.83777 26.133 15.0532 33.1274 22.6129 35.4312L26.4231 43.0515C26.7008 43.6074 27.269 43.9586 27.8907 43.9586C28.5119 43.9586 29.0801 43.6074 29.3578 43.0515L33.1684 35.4312C40.7277 33.1279 45.9436 26.133 45.9436 18.1623C45.9436 8.20784 37.8451 0.109375 27.8907 0.109375ZM27.8907 23.5904C24.8978 23.5904 22.4625 21.1551 22.4625 18.1623C22.4625 15.1694 24.8978 12.7341 27.8907 12.7341C30.8835 12.7341 33.3188 15.1694 33.3188 18.1623C33.3188 21.1551 30.8835 23.5904 27.8907 23.5904Z" fill="url(#paint1_linear_8_210)"/>
<path d="M9.66945 29.266L0.651552 34.9945C0.177735 35.2953 -0.109375 35.8178 -0.109375 36.3792V54.1125C-0.109375 54.7111 0.216614 55.2623 0.741274 55.5502C1.26593 55.8386 1.90552 55.8181 2.41095 55.4972L12.7969 48.9001V33.2496C12.0655 32.5148 11.3827 31.7231 10.7547 30.8763C10.3667 30.3529 10.0057 29.8154 9.66945 29.266Z" fill="url(#paint2_linear_8_210)"/>
<path d="M32.293 44.5191C31.4539 46.1973 29.7667 47.2398 27.8906 47.2398C26.0142 47.2398 24.3274 46.1973 23.4883 44.5191L20.278 38.0989C18.7903 37.5336 17.3855 36.809 16.0781 35.9404V48.8557L26.9063 55.7339C27.1746 55.9044 27.4801 55.9898 27.786 55.9898C28.088 55.9898 28.3897 55.9065 28.6558 55.7403L39.5938 48.8997V36.0143C38.3176 36.8505 36.9487 37.5494 35.5029 38.0989L32.293 44.5191Z" fill="url(#paint3_linear_8_210)"/>
<path d="M55.1298 34.9945L46.1115 29.266C45.7757 29.8154 45.4147 30.3529 45.0267 30.8763C44.3679 31.7645 43.6476 32.5913 42.8751 33.356V48.8305L53.3704 55.4972C53.8754 55.8181 54.5155 55.8386 55.0401 55.5502C55.5648 55.2618 55.8908 54.7111 55.8908 54.1125V36.3792C55.8908 35.8178 55.6037 35.2953 55.1298 34.9945Z" fill="url(#paint4_linear_8_210)"/>
</g>
<defs>
<linearGradient id="paint0_linear_8_210" x1="27.8907" y1="16.0154" x2="27.8907" y2="20.3092" gradientUnits="userSpaceOnUse">
<stop stop-color="#153198"/>
<stop offset="1" stop-color="#3253CC"/>
</linearGradient>
<linearGradient id="paint1_linear_8_210" x1="27.8907" y1="0.109375" x2="27.8907" y2="43.9586" gradientUnits="userSpaceOnUse">
<stop stop-color="#153198"/>
<stop offset="1" stop-color="#3253CC"/>
</linearGradient>
<linearGradient id="paint2_linear_8_210" x1="6.34376" y1="29.266" x2="6.34376" y2="55.753" gradientUnits="userSpaceOnUse">
<stop stop-color="#153198"/>
<stop offset="1" stop-color="#3253CC"/>
</linearGradient>
<linearGradient id="paint3_linear_8_210" x1="27.836" y1="35.9404" x2="27.836" y2="55.9898" gradientUnits="userSpaceOnUse">
<stop stop-color="#153198"/>
<stop offset="1" stop-color="#3253CC"/>
</linearGradient>
<linearGradient id="paint4_linear_8_210" x1="49.3829" y1="29.266" x2="49.3829" y2="55.753" gradientUnits="userSpaceOnUse">
<stop stop-color="#153198"/>
<stop offset="1" stop-color="#3253CC"/>
</linearGradient>
<clipPath id="clip0_8_210">
<rect width="56" height="56" fill="white"/>
</clipPath>
</defs>
</svg>
