<svg width="56" height="41" viewBox="0 0 56 41" fill="none" xmlns="http://www.w3.org/2000/svg">
<path d="M31.6214 7.87672C30.8525 6.54672 29.5345 5.78656 28 5.78656C26.4655 5.78656 25.1442 6.54563 24.3786 7.87672L9.32641 33.9473C8.5575 35.2773 8.5575 36.7998 9.32641 38.1266C10.0953 39.4566 11.4133 40.2189 12.9478 40.2189H43.0522C44.5867 40.2189 45.9047 39.4566 46.6736 38.1266C47.4392 36.7998 47.4392 35.2773 46.6736 33.9473L31.6214 7.87672ZM28 36.4127C26.9587 36.4127 26.1122 35.5661 26.1122 34.5248C26.1122 33.4858 26.9587 32.637 28 32.637C29.0391 32.637 29.8878 33.4869 29.8878 34.5248C29.8878 35.5661 29.0391 36.4127 28 36.4127ZM30.1295 17.0883L29.6275 27.165C29.587 28.0148 28.887 28.6809 28.0339 28.6809H27.9628C27.113 28.6809 26.413 28.0148 26.3725 27.165L25.8705 17.0883C25.8398 16.4966 26.0345 15.9781 26.4414 15.5472C26.8505 15.1195 27.3591 14.8997 27.9541 14.8997H28.047C28.6388 14.8997 29.1506 15.1195 29.5564 15.5472C29.9655 15.9781 30.158 16.4955 30.1295 17.0883ZM13.0998 2.33578C12.6689 1.59203 12.9227 0.639377 13.6642 0.20844C14.408 -0.219217 15.3606 0.0312524 15.7916 0.776096L18.0119 4.62063C18.4428 5.36438 18.1891 6.31703 17.4442 6.74797C16.7005 7.17891 15.7511 6.92516 15.3202 6.18031L13.0998 2.33578ZM8.08281 14.5552L4.23828 12.3348C3.49453 11.9072 3.23641 10.9578 3.66516 10.2173C4.09281 9.4736 5.04219 9.21547 5.78594 9.64422L9.63047 11.8645C10.3742 12.2922 10.6291 13.2416 10.2036 13.982C9.77594 14.7258 8.82766 14.9828 8.08281 14.5552ZM7.55891 23.875C7.55891 24.7369 6.85781 25.4347 5.99922 25.4347H1.55969C0.697812 25.4336 0 24.7369 0 23.875C0 23.0131 0.697812 22.3153 1.55969 22.3153H5.99922C6.85891 22.3153 7.55891 23.0131 7.55891 23.875ZM37.9892 4.62063L40.2095 0.776096C40.6405 0.0323461 41.592 -0.219217 42.3336 0.20844C43.0773 0.639377 43.3322 1.59094 42.9012 2.33578L40.6809 6.18031C40.25 6.92406 39.2984 7.17891 38.5569 6.74797C37.8131 6.31703 37.5583 5.36547 37.9892 4.62063ZM51.7617 12.3348L47.9172 14.5552C47.1734 14.9828 46.2241 14.7258 45.7964 13.982C45.3687 13.2416 45.6258 12.2922 46.3695 11.8645L50.2141 9.64422C50.9578 9.21656 51.9072 9.4736 52.3348 10.2173C52.7592 10.9578 52.5055 11.9072 51.7617 12.3348ZM56 23.875C56 24.7369 55.3022 25.4347 54.4403 25.4347H50.0008C49.1389 25.4347 48.4411 24.7369 48.4411 23.875C48.4411 23.0131 49.1389 22.3153 50.0008 22.3153H54.4403C55.3022 22.3153 56 23.0131 56 23.875Z" fill="url(#paint0_linear_8_219)"/>
<defs>
<linearGradient id="paint0_linear_8_219" x1="28" y1="0" x2="28" y2="40.2189" gradientUnits="userSpaceOnUse">
<stop stop-color="#153198"/>
<stop offset="1" stop-color="#3253CC"/>
</linearGradient>
</defs>
</svg>
