<svg width="56" height="56" viewBox="0 0 56 56" fill="none" xmlns="http://www.w3.org/2000/svg">
<path d="M37.77 17.1983L19.0978 17.1019C18.0653 17.0966 17.221 17.9322 17.2157 18.9648L17.1193 37.6545C17.1139 38.6871 17.9496 39.5138 18.9822 39.5191L37.6544 39.6155C38.6869 39.6208 39.5311 38.8027 39.5365 37.7702L39.6329 19.0804C39.6382 18.0479 38.8026 17.2036 37.77 17.1983Z" fill="url(#paint0_linear_8_238)"/>
<path d="M30.8061 4.79296L32.6625 3.36179C34.5879 1.87123 32.3219 -1.07911 30.3854 0.407182C30.3854 0.407077 24.0869 5.26187 24.0869 5.26187C23.164 6.0432 23.1236 7.56323 24.1583 8.27161L30.3854 13.0714C30.7243 13.3337 31.125 13.4595 31.5222 13.4595C33.2299 13.5239 34.0815 11.1308 32.6624 10.1166C32.6625 10.1167 30.5947 8.52251 30.5947 8.52251C38.3474 9.37754 44.9312 14.645 47.3599 22.1907C47.6149 22.9814 48.3473 23.4841 49.136 23.4841C50.3708 23.5017 51.3161 22.2243 50.9121 21.0467C48.0061 12.0217 40.0963 5.73728 30.8061 4.79296Z" fill="url(#paint1_linear_8_238)"/>
<path d="M24.1817 43.2092C22.4793 41.4619 19.8113 44.0442 21.502 45.8035C21.5019 45.8033 23.3213 47.6821 23.3213 47.6821C15.7726 45.718 10.0151 39.556 8.69919 31.74C8.52797 30.7253 7.56699 30.0421 6.54961 30.2097C5.53309 30.3811 4.84907 31.3429 5.01943 32.3594C6.5948 41.7077 13.515 49.0663 22.5722 51.3405L20.5292 52.4889C18.4035 53.6932 20.2349 56.93 22.3564 55.7424C22.3563 55.7425 29.2887 51.8459 29.2887 51.8459C29.9305 51.4 30.431 50.5708 30.1624 49.7872C30.4298 49.2555 24.5007 43.6944 24.1817 43.2092Z" fill="url(#paint2_linear_8_238)"/>
<defs>
<linearGradient id="paint0_linear_8_238" x1="28.4339" y1="17.1501" x2="28.3183" y2="39.5673" gradientUnits="userSpaceOnUse">
<stop stop-color="#153198"/>
<stop offset="1" stop-color="#3253CC"/>
</linearGradient>
<linearGradient id="paint1_linear_8_238" x1="37.1976" y1="0" x2="37.1976" y2="23.4843" gradientUnits="userSpaceOnUse">
<stop stop-color="#153198"/>
<stop offset="1" stop-color="#3253CC"/>
</linearGradient>
<linearGradient id="paint2_linear_8_238" x1="17.615" y1="30.1844" x2="17.615" y2="56" gradientUnits="userSpaceOnUse">
<stop stop-color="#153198"/>
<stop offset="1" stop-color="#3253CC"/>
</linearGradient>
</defs>
</svg>
