<svg width="56" height="56" viewBox="0 0 56 56" fill="none" xmlns="http://www.w3.org/2000/svg">
<g clip-path="url(#clip0_8_227)">
<path d="M53.9121 5.50028L49.931 6.06914L50.4999 2.088C50.7472 0.357573 48.6395 -0.700083 47.4015 0.539136L40.0976 7.84298C39.8183 8.12232 39.6371 8.4849 39.5812 8.87603L38.7543 14.6642L29.7367 23.6818C29.0226 23.3401 28.2328 23.133 27.3897 23.133C24.3691 23.133 21.9119 25.5902 21.9119 28.6108C21.9119 31.6314 24.3691 34.0886 27.3897 34.0886C30.4103 34.0886 32.8675 31.6314 32.8675 28.6108C32.8675 27.7677 32.6604 26.9779 32.3187 26.2638L41.3363 17.2462L47.1244 16.4193C47.5156 16.3634 47.878 16.1822 48.1575 15.9028L55.4613 8.59898C56.6955 7.36446 55.6506 5.2567 53.9121 5.50028Z" fill="url(#paint0_linear_8_227)"/>
<path d="M42.2035 21.5436L36.4187 27.328C36.4782 27.7482 36.5196 28.1742 36.5196 28.6106C36.5196 33.645 32.4243 37.7404 27.3899 37.7404C22.3555 37.7404 18.2601 33.645 18.2601 28.6106C18.2601 23.5762 22.3554 19.4809 27.3899 19.4809C27.8262 19.4809 28.2521 19.5222 28.6722 19.5817L34.4569 13.797C32.3126 12.7697 29.922 12.1771 27.3899 12.1771C18.3285 12.1771 10.9563 19.5493 10.9563 28.6107C10.9563 37.6721 18.3285 45.0443 27.3899 45.0443C36.4513 45.0443 43.8235 37.6721 43.8235 28.6107C43.8234 26.0785 43.231 23.6879 42.2035 21.5436Z" fill="url(#paint1_linear_8_227)"/>
<path d="M52.1984 17.0258L50.7394 18.4847C49.9073 19.3175 48.8064 19.8679 47.6409 20.0343L45.6612 20.3172C46.8153 22.849 47.4751 25.6515 47.4751 28.6107C47.4751 39.6859 38.4648 48.6962 27.3896 48.6962C16.3144 48.6962 7.30409 39.6859 7.30409 28.6107C7.30409 17.5355 16.3145 8.52516 27.3896 8.52516C30.3487 8.52516 33.1513 9.18502 35.6831 10.339L35.9659 8.35934C36.1323 7.19374 36.6828 6.09299 37.5154 5.2602L38.9741 3.8018C35.3759 2.11666 31.4533 1.22131 27.3895 1.22131C12.2868 1.22131 0.000244141 13.508 0.000244141 28.6107C0.000244141 43.7134 12.2869 56 27.3896 56C42.4923 56 54.779 43.7134 54.779 28.6107C54.779 24.5467 53.8836 20.6239 52.1984 17.0258Z" fill="url(#paint2_linear_8_227)"/>
</g>
<defs>
<linearGradient id="paint0_linear_8_227" x1="38.9557" y1="0.00012207" x2="38.9557" y2="34.0886" gradientUnits="userSpaceOnUse">
<stop stop-color="#153198"/>
<stop offset="1" stop-color="#3253CC"/>
</linearGradient>
<linearGradient id="paint1_linear_8_227" x1="27.3899" y1="12.1771" x2="27.3899" y2="45.0443" gradientUnits="userSpaceOnUse">
<stop stop-color="#153198"/>
<stop offset="1" stop-color="#3253CC"/>
</linearGradient>
<linearGradient id="paint2_linear_8_227" x1="27.3896" y1="1.22131" x2="27.3896" y2="56" gradientUnits="userSpaceOnUse">
<stop stop-color="#153198"/>
<stop offset="1" stop-color="#3253CC"/>
</linearGradient>
<clipPath id="clip0_8_227">
<rect width="56" height="56" fill="white"/>
</clipPath>
</defs>
</svg>
