<svg width="26" height="22" viewBox="0 0 26 22" fill="none" xmlns="http://www.w3.org/2000/svg">
<path d="M6.88817 21.7846C5.32064 21.6643 3.83123 21.0517 2.63257 20.0345C1.43393 19.0172 0.587343 17.6472 0.213715 16.1201C-0.159915 14.5929 -0.0414908 12.9869 0.552078 11.5311C1.14565 10.0753 2.18401 8.84425 3.51889 8.01376C3.80294 5.79904 4.88428 3.76371 6.56056 2.28869C8.23685 0.813654 10.3932 0 12.626 0C14.859 0 17.0153 0.813654 18.6915 2.28869C20.3678 3.76371 21.4491 5.79904 21.7332 8.01376C23.0681 8.84425 24.1065 10.0753 24.7 11.5311C25.2936 12.9869 25.4121 14.5929 25.0384 16.1201C24.6648 17.6472 23.8182 19.0172 22.6196 20.0345C21.4209 21.0517 19.9315 21.6643 18.3639 21.7846V21.8065H6.88817V21.7846ZM13.7736 12.6259H17.2163L12.626 6.88799L8.03575 12.6259H11.4784V17.2162H13.7736V12.6259Z" fill="url(#paint0_linear_11_400)"/>
<defs>
<linearGradient id="paint0_linear_11_400" x1="12.6261" y1="0" x2="12.6261" y2="21.8065" gradientUnits="userSpaceOnUse">
<stop stop-color="#153198"/>
<stop offset="1" stop-color="#3253CC"/>
</linearGradient>
</defs>
</svg>
