<svg width="355" height="580" viewBox="0 0 355 580" fill="none" xmlns="http://www.w3.org/2000/svg">
<rect width="355" height="580" rx="12" fill="url(#paint0_linear_2023_17)"/>
<g filter="url(#filter0_i_2023_17)">
<path d="M137.256 75.9098C137.772 76.1734 138.277 76.4575 138.773 76.7559C139.067 76.9318 139.361 77.1077 139.663 77.289C140.135 77.5768 140.135 77.5768 140.617 77.8705C140.948 78.0706 141.279 78.2707 141.62 78.4768C144.544 80.2572 147.414 82.1163 150.277 83.9934C152.282 85.3075 154.303 86.5982 156.327 87.8842C156.671 88.1032 157.016 88.3221 157.371 88.5478C159.854 90.1237 162.34 91.6943 164.827 93.2633C168.817 95.7813 172.794 98.3193 176.774 100.854C180.341 103.127 183.91 105.398 187.488 107.655C191.768 110.354 196.035 113.074 200.302 115.793C203.87 118.066 207.439 120.337 211.017 122.594C214.305 124.668 217.588 126.752 220.865 128.843C222.026 129.584 223.19 130.32 224.358 131.049C228.615 133.716 232.225 136.218 233.611 141.267C234.226 145.694 233.7 149.579 230.997 153.218C228.963 155.304 226.577 156.829 224.111 158.353C223.375 158.815 222.639 159.277 221.903 159.739C221.362 160.077 221.362 160.077 220.811 160.422C219.428 161.29 218.057 162.177 216.689 163.068C214.058 164.776 211.418 166.468 208.776 168.157C206.157 169.831 203.54 171.507 200.933 173.199C197.5 175.426 194.051 177.628 190.604 179.832C187.735 181.667 184.87 183.509 182.007 185.354C179.692 186.845 177.373 188.327 175.049 189.803C171.746 191.901 168.454 194.014 165.176 196.152C162.239 198.066 159.285 199.954 156.331 201.842C153.869 203.415 151.414 204.996 148.964 206.587C146.357 208.277 143.732 209.94 141.106 211.599C140.773 211.81 140.44 212.021 140.097 212.238C139.801 212.425 139.505 212.612 139.2 212.805C138.362 213.338 138.362 213.338 137.578 213.989C137.349 214.147 137.119 214.305 136.883 214.467C135.281 214.103 134.138 213.115 132.868 212.11C132.436 211.771 132.004 211.433 131.572 211.094C131.344 210.914 131.115 210.734 130.879 210.549C129.621 209.564 128.35 208.597 127.079 207.628C126.536 207.213 125.994 206.798 125.451 206.384C125.18 206.176 124.908 205.969 124.629 205.755C123.298 204.738 121.967 203.721 120.637 202.703C120.108 202.298 119.579 201.894 119.05 201.489C103.177 189.351 87.3045 177.214 71.4321 165.076C71.1699 164.875 70.9077 164.675 70.6376 164.469C70.1109 164.066 69.5846 163.662 69.0586 163.258C67.7017 162.218 66.339 161.186 64.9649 160.168C60.6893 156.987 57.395 154.231 55.4662 149.11C55.329 148.75 55.1918 148.391 55.0504 148.02C53.9471 144.185 54.6496 139.749 56.2948 136.168C58.8611 131.542 63.0899 128.796 67.3067 125.819C68.5976 124.899 69.8639 123.947 71.1286 122.99C75.6041 119.617 80.1175 116.296 84.6669 113.023C87.0164 111.333 89.3432 109.615 91.6547 107.873C94.4608 105.759 97.2923 103.68 100.123 101.6C101.023 100.937 101.922 100.273 102.821 99.6091C105.722 97.4665 108.629 95.3351 111.557 93.2295C113.906 91.5389 116.233 89.8214 118.545 88.0793C121.342 85.9721 124.165 83.8996 126.986 81.8253C127.966 81.1042 128.944 80.3812 129.921 79.6576C130.246 79.4171 130.572 79.1765 130.907 78.9287C131.534 78.4649 132.161 78.0006 132.787 77.5359C133.209 77.2242 133.209 77.2242 133.64 76.9062C133.888 76.7224 134.136 76.5386 134.392 76.3492C135.52 75.5539 135.952 75.4783 137.256 75.9098Z" fill="#1736A7"/>
<path d="M0.191763 147.242C0.639326 148.129 1.06651 149.017 1.47848 149.921C1.6855 150.362 1.89251 150.803 2.1058 151.257C2.30703 151.694 2.50827 152.131 2.7156 152.582C4.35063 155.575 7.17861 157.512 9.97201 159.333C12.0553 160.723 14.0971 162.124 16.0642 163.675C17.9788 165.178 19.953 166.56 21.9697 167.923C24.485 169.623 26.9375 171.381 29.3544 173.218C31.367 174.743 33.4196 176.205 35.4872 177.655C38.2719 179.608 41.0272 181.602 43.7818 183.598C45.2169 184.637 46.653 185.676 48.0893 186.713C48.3704 186.916 48.6516 187.12 48.9412 187.329C50.8225 188.687 52.7088 190.039 54.5987 191.385C56.3641 192.644 58.1207 193.915 59.877 195.186C62.0688 196.773 64.2696 198.345 66.4827 199.901C69.5183 202.037 72.528 204.207 75.5334 206.385C76.9348 207.399 78.3379 208.412 79.7409 209.425C81.4267 210.642 83.1122 211.859 84.7959 213.079C87.5194 215.052 90.2489 217.014 92.9991 218.948C95.7413 220.878 98.4633 222.833 101.178 224.801C102.382 225.674 103.59 226.541 104.801 227.404C105.111 227.626 105.421 227.848 105.741 228.076C106.339 228.503 106.938 228.93 107.537 229.354C107.805 229.546 108.072 229.738 108.348 229.935C108.585 230.104 108.822 230.272 109.066 230.446C109.619 230.9 109.619 230.9 109.992 231.646C109.776 231.783 109.561 231.92 109.339 232.061C105.403 234.56 101.47 237.064 97.5592 239.602C95.8242 240.727 94.0829 241.842 92.3368 242.95C91.1469 243.707 89.9602 244.469 88.7742 245.231C88.5511 245.375 88.3281 245.518 88.0982 245.666C87.0396 246.347 85.9812 247.029 84.9228 247.71C82.447 249.303 79.9684 250.891 77.4881 252.478C74.1917 254.586 70.8976 256.697 67.6151 258.826C64.8452 260.622 62.0627 262.397 59.2817 264.175C57.0719 265.588 54.8649 267.006 52.6643 268.433C49.6542 270.386 46.6308 272.318 43.6075 274.251C41.0258 275.902 38.4494 277.561 35.8781 279.229C34.1631 280.34 32.4419 281.442 30.7157 282.536C29.7401 283.157 28.7681 283.784 27.7968 284.411C25.8311 285.68 23.8607 286.941 21.8764 288.18C21.5033 288.414 21.1302 288.648 20.7458 288.889C17.3163 290.84 14.1106 291.464 10.2288 290.655C6.93553 289.706 3.91076 287.599 2.05911 284.679C0.957491 282.359 0.144899 280.195 0.145808 277.616C0.145064 277.152 0.144321 276.688 0.143555 276.209C0.14462 275.692 0.14572 275.174 0.146851 274.656C0.146688 274.108 0.146362 273.56 0.145884 273.013C0.145047 271.503 0.146547 269.994 0.148416 268.485C0.150024 266.859 0.149483 265.233 0.149199 263.607C0.149003 260.789 0.150177 257.97 0.152276 255.152C0.155307 251.077 0.156283 247.002 0.156753 242.927C0.157571 236.316 0.160058 229.705 0.163588 223.094C0.167015 216.672 0.169659 210.249 0.171247 203.826C0.171345 203.43 0.171444 203.034 0.171545 202.627C0.172032 200.641 0.172504 198.656 0.172968 196.671C0.176842 180.195 0.183421 163.718 0.191763 147.242Z" fill="#1736A7"/>
<path d="M24.4917 4.1095C25.0696 4.47585 25.0696 4.47585 25.6591 4.8496C26.8827 5.62663 28.1033 6.40821 29.3235 7.19063C30.1268 7.70376 30.9301 8.21679 31.7336 8.72973C33.3092 9.73667 34.8836 10.7455 36.4574 11.7554C38.3926 12.9963 40.3334 14.228 42.2783 15.4537C45.8349 17.6952 49.3816 19.9521 52.9274 22.2108C54.6449 23.3046 56.3628 24.3976 58.0807 25.4907C60.1482 26.8062 62.2155 28.1218 64.2824 29.4384C67.5025 31.4892 70.7242 33.5375 73.9532 35.5744C78.6459 38.535 83.3294 41.5104 87.9992 44.507C92.2892 47.2595 96.5916 49.9897 100.918 52.6847C103.711 54.4254 106.487 56.1898 109.246 57.9826C108.691 59.4102 107.961 59.9337 106.679 60.7369C104.575 62.0924 102.516 63.4985 100.47 64.9385C100.15 65.1625 99.8313 65.3865 99.5025 65.6174C98.8449 66.0791 98.1874 66.541 97.53 67.0031C95.9592 68.1065 94.3863 69.2067 92.8134 70.3071C90.9589 71.605 89.1045 72.9032 87.2508 74.2023C83.5794 76.7746 79.9024 79.3387 76.2216 81.8974C72.9647 84.1621 69.7143 86.436 66.4657 88.7125C64.604 90.017 62.7414 91.3202 60.879 92.6238C59.3367 93.7033 57.7945 94.7831 56.2528 95.8635C52.5814 98.4358 48.9044 101 45.2235 103.559C41.9666 105.823 38.7163 108.097 35.4677 110.374C33.606 111.678 31.7434 112.982 29.881 114.285C28.3386 115.365 26.7965 116.444 25.2547 117.525C22.2724 119.614 19.2877 121.7 16.2964 123.777C15.1997 124.539 14.1042 125.302 13.009 126.066C11.8182 126.897 10.6239 127.722 9.42309 128.538C5.44465 131.264 1.81016 134.408 0.704895 139.323C0.65916 139.595 0.613424 139.866 0.566303 140.146C0.443058 140.146 0.319813 140.146 0.192833 140.146C0.15863 123.754 0.132311 107.362 0.116547 90.9699C0.114679 89.0342 0.112745 87.0984 0.110771 85.1626C0.11038 84.7773 0.109987 84.3919 0.109583 83.9948C0.103085 77.7571 0.0913091 71.5194 0.0775764 65.2817C0.0636004 58.8799 0.0553079 52.4782 0.0522771 46.0765C0.0502285 42.1271 0.0437608 38.1778 0.0316193 34.2284C0.0237153 31.5192 0.0213379 28.81 0.0232764 26.1008C0.024232 24.5384 0.0227784 22.976 0.0147539 21.4135C0.00745125 19.9811 0.00713785 18.5489 0.0122237 17.1165C0.0131477 16.3569 0.00673397 15.5973 0 14.8377C0.0274427 10.6092 0.956118 6.95268 3.92753 3.8294C10.4254 -2.26388 17.6967 -0.260172 24.4917 4.1095Z" fill="#1736A7"/>
</g>
<defs>
<filter id="filter0_i_2023_17" x="0" y="0" width="233.843" height="313.616" filterUnits="userSpaceOnUse" color-interpolation-filters="sRGB">
<feFlood flood-opacity="0" result="BackgroundImageFix"/>
<feBlend mode="normal" in="SourceGraphic" in2="BackgroundImageFix" result="shape"/>
<feColorMatrix in="SourceAlpha" type="matrix" values="0 0 0 0 0 0 0 0 0 0 0 0 0 0 0 0 0 0 127 0" result="hardAlpha"/>
<feOffset dy="22.6157"/>
<feGaussianBlur stdDeviation="14.9829"/>
<feComposite in2="hardAlpha" operator="arithmetic" k2="-1" k3="1"/>
<feColorMatrix type="matrix" values="0 0 0 0 0 0 0 0 0 0 0 0 0 0 0 0 0 0 0.25 0"/>
<feBlend mode="normal" in2="shape" result="effect1_innerShadow_2023_17"/>
</filter>
<linearGradient id="paint0_linear_2023_17" x1="22" y1="52.5" x2="507.5" y2="444.979" gradientUnits="userSpaceOnUse">
<stop stop-color="#3253CC"/>
<stop offset="1" stop-color="#011661"/>
</linearGradient>
</defs>
</svg>
