<svg width="1133" height="750" viewBox="0 0 1133 750" fill="none" xmlns="http://www.w3.org/2000/svg">
<circle opacity="0.1" cx="566.5" cy="513.796" r="566.5" fill="url(#paint0_linear_2001_12)"/>
<circle opacity="0.1" cx="566.5" cy="513.796" r="566.5" fill="url(#paint1_linear_2001_12)"/>
<rect opacity="0.15" x="152.247" y="99.5427" width="828.506" height="828.506" rx="414.253" fill="url(#paint2_linear_2001_12)"/>
<rect opacity="0.15" x="152.247" y="99.5427" width="828.506" height="828.506" rx="414.253" fill="url(#paint3_linear_2001_12)"/>
<rect opacity="0.2" x="263" y="196" width="625.57" height="625.57" rx="312.785" fill="url(#paint4_linear_2001_12)"/>
<rect opacity="0.2" x="263" y="195" width="625.57" height="625.57" rx="312.785" fill="url(#paint5_linear_2001_12)"/>
<g filter="url(#filter0_di_2001_12)">
<rect x="162" y="306" width="75.5333" height="75.5333" rx="37.7667" fill="#3253CC" fill-opacity="0.2" shape-rendering="crispEdges"/>
<path fill-rule="evenodd" clip-rule="evenodd" d="M208.946 334.794H215.531C216.141 334.794 216.638 335.291 216.638 335.9V360.082C216.638 360.691 216.141 361.188 215.531 361.188H208.946C208.336 361.188 207.839 360.691 207.839 360.082V335.9C207.839 335.291 208.336 334.794 208.946 334.794ZM194.109 329.924L192.806 328.978C192.691 328.895 192.636 328.762 192.659 328.622C192.681 328.481 192.775 328.372 192.91 328.329L199.043 326.364C199.154 326.328 199.265 326.344 199.362 326.41C199.459 326.475 199.515 326.573 199.523 326.689L199.991 333.444C200.001 333.59 199.93 333.721 199.802 333.792C199.674 333.863 199.525 333.854 199.406 333.768L198.227 332.912C193.683 339.173 189.069 340.641 183.224 339.998C183.047 339.978 182.912 339.84 182.897 339.663C182.882 339.486 182.991 339.326 183.162 339.277C189.667 337.403 193.076 332.036 194.109 329.924ZM184.934 348.58H191.519C192.128 348.58 192.625 349.077 192.625 349.687V360.082C192.625 360.691 192.128 361.188 191.519 361.188H184.934C184.324 361.188 183.827 360.691 183.827 360.082V349.687C183.827 349.077 184.324 348.58 184.934 348.58ZM203.525 341.687H196.94C196.33 341.687 195.833 342.184 195.833 342.794V360.082C195.833 360.691 196.33 361.188 196.94 361.188H203.525C204.134 361.188 204.631 360.691 204.631 360.082V342.794C204.631 342.184 204.134 341.687 203.525 341.687Z" fill="white"/>
</g>
<g filter="url(#filter1_f_2001_12)">
<ellipse cx="537.585" cy="-98.7323" rx="77.3036" ry="270.268" fill="#3253CC"/>
</g>
<g filter="url(#filter2_di_2001_12)">
<rect x="908" y="309" width="64" height="64" rx="32" fill="#3253CC" fill-opacity="0.2" shape-rendering="crispEdges"/>
<path d="M938.49 348.56L935.66 351.38C934.49 352.55 932.58 352.55 931.41 351.38L928.58 348.55C927.42 347.39 927.42 345.48 928.58 344.31L931.41 341.48L938.49 348.56ZM951.92 340.77L939.19 328.05C938.97 327.82 938.65 327.71 938.34 327.76C938.02 327.81 937.75 328 937.6 328.28L931.87 339.11L940.88 348.12L951.679 342.36C951.96 342.22 952.15 341.94 952.2 341.63C952.25 341.31 952.139 341 951.92 340.77ZM930 352.79L927.17 349.96C926.77 349.56 926.46 349.12 926.23 348.64C925.73 350.04 926.05 351.67 927.17 352.79C927.93 353.55 928.93 353.97 930 353.97C930.46 353.97 930.91 353.89 931.33 353.74C930.84 353.51 930.39 353.19 930 352.79ZM941.67 351.73L939.91 349.97L937.07 352.8C936.83 353.04 936.57 353.25 936.29 353.43L938.13 355.27C938.6 355.74 939.23 356 939.9 356C940.57 356 941.2 355.74 941.67 355.27C942.639 354.29 942.639 352.71 941.67 351.73ZM945 329V327C945 326.448 944.553 326 944 326C943.447 326 943 326.448 943 327V329C943 329.553 943.447 330 944 330C944.553 330 945 329.553 945 329ZM954 336C954 335.448 953.553 335 953 335H951C950.447 335 950 335.448 950 336C950 336.552 950.447 337 951 337H953C953.553 337 954 336.552 954 336ZM948.707 332.707L950.707 330.707C951.097 330.316 951.097 329.684 950.707 329.293C950.316 328.902 949.683 328.902 949.293 329.293L947.293 331.293C946.902 331.684 946.902 332.316 947.293 332.707C947.488 332.902 947.744 333 948 333C948.256 333 948.511 332.902 948.707 332.707Z" fill="white"/>
</g>
<g filter="url(#filter3_di_2001_12)">
<rect x="535" y="72" width="64" height="64" rx="32" fill="#3253CC" fill-opacity="0.2" shape-rendering="crispEdges"/>
<path d="M566.616 106.666L558.689 105.743C558.22 105.693 557.919 105.445 557.787 104.997C557.654 104.549 557.762 104.17 558.111 103.861L571.155 92.1539C571.214 92.0935 571.283 92.0486 571.361 92.0193C571.44 91.989 571.552 91.9739 571.7 91.9739C571.94 91.9739 572.129 92.0775 572.268 92.2846C572.407 92.4917 572.408 92.7095 572.272 92.9379L567.308 101.358L575.285 102.281C575.755 102.33 576.06 102.575 576.201 103.014C576.343 103.453 576.239 103.828 575.889 104.138L562.845 115.871C562.786 115.931 562.717 115.971 562.639 115.993C562.56 116.014 562.448 116.025 562.3 116.025C562.06 116.025 561.879 115.921 561.757 115.715C561.636 115.509 561.634 115.3 561.753 115.087L566.616 106.666Z" fill="white"/>
</g>
<defs>
<filter id="filter0_di_2001_12" x="124.233" y="268.233" width="151.067" height="151.067" filterUnits="userSpaceOnUse" color-interpolation-filters="sRGB">
<feFlood flood-opacity="0" result="BackgroundImageFix"/>
<feColorMatrix in="SourceAlpha" type="matrix" values="0 0 0 0 0 0 0 0 0 0 0 0 0 0 0 0 0 0 127 0" result="hardAlpha"/>
<feOffset/>
<feGaussianBlur stdDeviation="18.8833"/>
<feComposite in2="hardAlpha" operator="out"/>
<feColorMatrix type="matrix" values="0 0 0 0 0.196078 0 0 0 0 0.32549 0 0 0 0 0.8 0 0 0 0.5 0"/>
<feBlend mode="normal" in2="BackgroundImageFix" result="effect1_dropShadow_2001_12"/>
<feBlend mode="normal" in="SourceGraphic" in2="effect1_dropShadow_2001_12" result="shape"/>
<feColorMatrix in="SourceAlpha" type="matrix" values="0 0 0 0 0 0 0 0 0 0 0 0 0 0 0 0 0 0 127 0" result="hardAlpha"/>
<feOffset/>
<feGaussianBlur stdDeviation="14.1625"/>
<feComposite in2="hardAlpha" operator="arithmetic" k2="-1" k3="1"/>
<feColorMatrix type="matrix" values="0 0 0 0 0.196078 0 0 0 0 0.32549 0 0 0 0 0.8 0 0 0 1 0"/>
<feBlend mode="normal" in2="shape" result="effect2_innerShadow_2001_12"/>
</filter>
<filter id="filter1_f_2001_12" x="268.025" y="-561.256" width="539.119" height="925.047" filterUnits="userSpaceOnUse" color-interpolation-filters="sRGB">
<feFlood flood-opacity="0" result="BackgroundImageFix"/>
<feBlend mode="normal" in="SourceGraphic" in2="BackgroundImageFix" result="shape"/>
<feGaussianBlur stdDeviation="96.128" result="effect1_foregroundBlur_2001_12"/>
</filter>
<filter id="filter2_di_2001_12" x="876" y="277" width="128" height="128" filterUnits="userSpaceOnUse" color-interpolation-filters="sRGB">
<feFlood flood-opacity="0" result="BackgroundImageFix"/>
<feColorMatrix in="SourceAlpha" type="matrix" values="0 0 0 0 0 0 0 0 0 0 0 0 0 0 0 0 0 0 127 0" result="hardAlpha"/>
<feOffset/>
<feGaussianBlur stdDeviation="16"/>
<feComposite in2="hardAlpha" operator="out"/>
<feColorMatrix type="matrix" values="0 0 0 0 0.196078 0 0 0 0 0.32549 0 0 0 0 0.8 0 0 0 0.5 0"/>
<feBlend mode="normal" in2="BackgroundImageFix" result="effect1_dropShadow_2001_12"/>
<feBlend mode="normal" in="SourceGraphic" in2="effect1_dropShadow_2001_12" result="shape"/>
<feColorMatrix in="SourceAlpha" type="matrix" values="0 0 0 0 0 0 0 0 0 0 0 0 0 0 0 0 0 0 127 0" result="hardAlpha"/>
<feOffset/>
<feGaussianBlur stdDeviation="12"/>
<feComposite in2="hardAlpha" operator="arithmetic" k2="-1" k3="1"/>
<feColorMatrix type="matrix" values="0 0 0 0 0.196078 0 0 0 0 0.32549 0 0 0 0 0.8 0 0 0 1 0"/>
<feBlend mode="normal" in2="shape" result="effect2_innerShadow_2001_12"/>
</filter>
<filter id="filter3_di_2001_12" x="503" y="40" width="128" height="128" filterUnits="userSpaceOnUse" color-interpolation-filters="sRGB">
<feFlood flood-opacity="0" result="BackgroundImageFix"/>
<feColorMatrix in="SourceAlpha" type="matrix" values="0 0 0 0 0 0 0 0 0 0 0 0 0 0 0 0 0 0 127 0" result="hardAlpha"/>
<feOffset/>
<feGaussianBlur stdDeviation="16"/>
<feComposite in2="hardAlpha" operator="out"/>
<feColorMatrix type="matrix" values="0 0 0 0 0.196078 0 0 0 0 0.32549 0 0 0 0 0.8 0 0 0 0.5 0"/>
<feBlend mode="normal" in2="BackgroundImageFix" result="effect1_dropShadow_2001_12"/>
<feBlend mode="normal" in="SourceGraphic" in2="effect1_dropShadow_2001_12" result="shape"/>
<feColorMatrix in="SourceAlpha" type="matrix" values="0 0 0 0 0 0 0 0 0 0 0 0 0 0 0 0 0 0 127 0" result="hardAlpha"/>
<feOffset/>
<feGaussianBlur stdDeviation="12"/>
<feComposite in2="hardAlpha" operator="arithmetic" k2="-1" k3="1"/>
<feColorMatrix type="matrix" values="0 0 0 0 0.196078 0 0 0 0 0.32549 0 0 0 0 0.8 0 0 0 1 0"/>
<feBlend mode="normal" in2="shape" result="effect2_innerShadow_2001_12"/>
</filter>
<linearGradient id="paint0_linear_2001_12" x1="566.5" y1="-52.7042" x2="566.5" y2="513.796" gradientUnits="userSpaceOnUse">
<stop stop-color="#3253CC"/>
<stop offset="0.701549" stop-color="#3253CC" stop-opacity="0"/>
</linearGradient>
<linearGradient id="paint1_linear_2001_12" x1="566.5" y1="-52.7042" x2="566.5" y2="513.796" gradientUnits="userSpaceOnUse">
<stop stop-color="#3253CC"/>
<stop offset="0.701549" stop-color="#3253CC" stop-opacity="0"/>
</linearGradient>
<linearGradient id="paint2_linear_2001_12" x1="566.5" y1="99.5427" x2="566.5" y2="513.796" gradientUnits="userSpaceOnUse">
<stop stop-color="#3253CC"/>
<stop offset="0.855371" stop-color="#3253CC" stop-opacity="0"/>
</linearGradient>
<linearGradient id="paint3_linear_2001_12" x1="566.5" y1="99.5427" x2="566.5" y2="513.796" gradientUnits="userSpaceOnUse">
<stop stop-color="#3253CC"/>
<stop offset="0.855371" stop-color="#3253CC" stop-opacity="0"/>
</linearGradient>
<linearGradient id="paint4_linear_2001_12" x1="575.785" y1="196" x2="575.785" y2="508.785" gradientUnits="userSpaceOnUse">
<stop stop-color="#3253CC"/>
<stop offset="1" stop-color="#3253CC" stop-opacity="0"/>
</linearGradient>
<linearGradient id="paint5_linear_2001_12" x1="575.785" y1="195" x2="575.785" y2="507.785" gradientUnits="userSpaceOnUse">
<stop stop-color="#3253CC"/>
<stop offset="1" stop-color="#3253CC" stop-opacity="0"/>
</linearGradient>
</defs>
</svg>
